<?xml version="1.0" encoding="utf-8"?>
<!-- Generator: Adobe Illustrator 18.1.1, SVG Export Plug-In . SVG Version: 6.00 Build 0)  -->
<svg version="1.1" id="Capa_1" xmlns="http://www.w3.org/2000/svg" xmlns:xlink="http://www.w3.org/1999/xlink" x="0px" y="0px"
	 viewBox="46.6 159.8 564.8 611.7" enable-background="new 46.6 159.8 564.8 611.7" xml:space="preserve">
<g>
	<path fill="#E2DCD0" d="M593.4,501.9c12-18.2,18-38.1,18-59.9c0-25.2-9.3-47.1-28-65.8c-18.7-18.7-40.7-28-66.2-28h-64.8
		c11.7-24.2,17.6-47.8,17.6-70.6c0-28.7-4.3-51.5-12.9-68.4s-21.1-29.4-37.5-37.4c-16.5-8-34.9-12-55.5-12
		c-12.5,0-23.6,4.5-33.1,13.7c-10.6,10.3-18.2,23.6-22.8,39.7c-4.6,16.2-8.4,31.7-11.2,46.5c-2.8,14.8-7.2,25.4-13,31.4
		c-12,13-25.1,28.7-39.4,47c-24.7,32.1-41.6,51.1-50.4,57.1H93.6c-13,0-24.1,4.6-33.2,13.8s-13.8,20.4-13.8,33.2v235.3
		c0,13,4.6,24.1,13.8,33.2c9.1,9.1,20.4,13.8,33.2,13.8h105.9c5.4,0,22.3,4.9,50.8,14.7c30.1,10.6,56.7,18.5,79.6,24.1
		c22.9,5.5,46.1,8.2,69.7,8.2h34.1H447c34.5,0,62.3-9.9,83.5-29.6c21.1-19.7,31.6-46.6,31.3-80.8c14.7-18.9,22-40.7,22-65.4
		c0-5.4-0.4-10.7-1.2-15.8c9.3-16.4,14-34.1,14-52.9C596.7,518.5,595.6,510,593.4,501.9z M133.7,670.8c-4.6,4.6-10.2,7-16.5,7
		s-11.9-2.3-16.5-7c-4.6-4.6-7-10.2-7-16.5s2.3-11.9,7-16.5c4.6-4.6,10.2-7,16.5-7s11.9,2.3,16.5,7c4.6,4.6,7,10.2,7,16.5
		S138.4,666.1,133.7,670.8z M556.4,472.1c-5.3,11.3-11.9,17-19.7,17.3c3.7,4.1,6.7,10,9.1,17.5c2.4,7.5,3.6,14.3,3.6,20.4
		c0,16.9-6.4,31.6-19.5,43.8c4.4,7.9,6.6,16.4,6.6,25.4s-2.2,18-6.4,27.1c-4.3,8.9-10.2,15.3-17.5,19.3c1.3,7.3,1.8,14.2,1.8,20.6
		c0,41-23.6,61.4-70.6,61.4h-44.4c-32.1,0-74.1-8.9-125.7-26.8c-1.3-0.5-4.8-1.8-10.7-3.9c-5.9-2.1-10.2-3.6-13-4.6
		s-7.1-2.4-12.9-4.3c-5.8-1.8-10.4-3.2-13.9-4c-3.6-0.9-7.6-1.7-12.1-2.4c-4.5-0.8-8.4-1.2-11.6-1.2h-11.7V442.4h11.7
		c3.9,0,8.2-1.2,13-3.3c4.8-2.2,9.7-5.5,14.7-9.9s9.8-8.8,14.2-13c4.4-4.3,9.3-9.7,14.7-16.2c5.4-6.4,9.7-11.7,12.8-15.6
		s7-8.9,11.6-15.1s7.5-9.8,8.5-11.1c13.5-16.6,22.9-27.8,28.3-33.5c10-10.6,17.4-24,21.9-40.3c4.5-16.4,8.2-31.7,11.2-46.1
		c3-14.4,7.6-24.9,14-31.3c23.6,0,39.3,5.8,47,17.3c7.9,11.5,11.7,29.2,11.7,53.3c0,14.4-5.9,34.1-17.6,59s-17.6,44.4-17.6,58.6
		h129.5c12.2,0,23.2,4.8,32.7,14.2c9.5,9.4,14.3,20.4,14.3,33C564.4,450.9,561.7,460.9,556.4,472.1z"/>
</g>
</svg>
