<?xml version="1.0" encoding="utf-8"?>
<!-- Generator: Adobe Illustrator 18.1.1, SVG Export Plug-In . SVG Version: 6.00 Build 0)  -->
<svg version="1.1" id="Capa_1" xmlns="http://www.w3.org/2000/svg" xmlns:xlink="http://www.w3.org/1999/xlink" x="0px" y="0px"
	 viewBox="81.4 134.1 545.2 612" enable-background="new 81.4 134.1 545.2 612" xml:space="preserve">
<g>
	<path fill="#E2DCD0" d="M159.3,657.1h166.9v-66.8H159.3V657.1z M246.9,607.7c7.7,0,14,6.3,14,14s-6.3,14-14,14s-14-6.3-14-14
		C233,613.9,239.2,607.7,246.9,607.7z"/>
	<path fill="#E2DCD0" d="M159.3,545.8h166.9V479H159.3V545.8z M246.9,496.4c7.7,0,14,6.3,14,14c0,7.7-6.3,14-14,14s-14-6.3-14-14
		C233,502.6,239.2,496.4,246.9,496.4z"/>
	<path fill="#E2DCD0" d="M381.9,657.1h166.9V212H381.9V657.1z M413.9,407.3c7.7,0,14,6.3,14,14s-6.3,14-14,14s-14-6.3-14-14
		C399.9,413.6,406.2,407.3,413.9,407.3z"/>
	<path fill="#E2DCD0" d="M159.3,434.5h166.9V212H159.3V434.5z M291.5,318.3c7.7,0,14,6.3,14,14s-6.3,14-14,14s-14-6.3-14-14
		C277.5,324.6,283.8,318.3,291.5,318.3z"/>
	<path fill="#E2DCD0" d="M103.6,679.3v33.4v33.4H137v-33.4h200.3v33.4h33.4v-33.4H571v33.4h33.4v-33.4v-33.4V167.5H103.6V679.3z
		 M370.7,200.8h189.2v467.3H370.7V200.8z M148.2,200.8h189.2v244.8H148.2V200.8z M148.2,467.9h189.2v89H148.2V467.9z M148.2,579.2
		h189.2v89H148.2V579.2z"/>
	<polygon fill="#E2DCD0" points="103.6,156.3 604.4,156.3 626.6,134.1 81.4,134.1 	"/>
</g>
</svg>
