<?xml version="1.0" encoding="utf-8"?>
<!-- Generator: Adobe Illustrator 18.1.1, SVG Export Plug-In . SVG Version: 6.00 Build 0)  -->
<svg version="1.1" id="Capa_1" xmlns="http://www.w3.org/2000/svg" xmlns:xlink="http://www.w3.org/1999/xlink" x="0px" y="0px"
	 viewBox="-88 373.3 611.9 403.6" enable-background="new -88 373.3 611.9 403.6" xml:space="preserve">
<g>
	<g>
		<path fill="#E2DCD0" d="M-30.6,595.1h24c0,0,2.9-12.7,6.5-28.1c3.6-15.5,32.1-28,63.8-28h315.7c31.7,0,59.1,12.7,61.2,28.1
			l3.8,28.1h22.1c31.7,0,57.4-25.7,57.4-57.4V430.7c0-26.4-18-48.5-42.3-55.2c1.4,5.5,2.2,11,2.2,16.8v23c0,37.9-31,68.9-68.9,68.9
			H21c-37.9,0-68.9-31-68.9-68.9v-23c0-5.8,0.7-11.5,2.2-16.8C-70,382.2-88,404-88,430.7v107.1C-88,569.5-62.3,595.1-30.6,595.1z"/>
		<path fill="#E2DCD0" d="M21,461.4h394c25.2,0,45.9-20.6,45.9-45.9v-23c0-7-1.7-13.2-4.3-19.2H-20.5c-2.6,5.8-4.3,12.2-4.3,19.2v23
			C-24.9,440.8-4.2,461.4,21,461.4z M-1.8,393.7h433.1c3.1,0,5.8,2.6,5.8,5.8c0,3.1-2.6,5.8-5.8,5.8H-1.8c-3.1,0-5.8-2.6-5.8-5.8
			C-7.6,396.3-4.9,393.7-1.8,393.7z M-1.8,429.5h433.1c3.1,0,5.8,2.6,5.8,5.8c0,3.1-2.6,5.8-5.8,5.8H-1.8c-3.1,0-5.8-2.6-5.8-5.8
			C-7.6,432.1-4.9,429.5-1.8,429.5z"/>
		<path fill="#E2DCD0" d="M422.9,574.3c-1.7-11.5-28.8-21.1-60.5-21.1H77.7c-31.7,0-59.1,9.4-61.2,21.1c-2.2,11.5-3.8,21.1-3.8,21.1
			H426L422.9,574.3z"/>
		<path fill="#E2DCD0" d="M51,774c2.2,1.9,4.8,2.9,7.4,2.9c3.1,0,6.5-1.4,8.6-3.8c1.7-2.2,43.2-50.7,11.8-90.3
			c-17.3-21.8-4.6-34.6-1.7-37c4.8-4.1,5.8-11,1.7-16.1c-3.8-5-11.3-5.8-16.1-1.9c-12,9.6-27.9,36.3-1.9,69.1
			c19.4,24.5-10.8,60.5-11.3,61C45.7,762.7,46.2,769.9,51,774z"/>
		<path fill="#E2DCD0" d="M151.4,774c2.2,1.9,4.8,2.9,7.4,2.9c3.1,0,6.5-1.4,8.6-3.8c1.7-2.2,43.2-50.7,11.8-90.3
			c-17.3-21.8-4.6-34.6-1.7-37c4.8-4.1,5.8-11,1.7-16.1c-3.8-5-11.3-5.8-16.1-1.9c-12,9.6-27.9,36.3-1.9,69.1
			c19.4,24.5-10.8,60.5-11.3,61C146.1,762.7,146.6,769.9,151.4,774z"/>
		<path fill="#E2DCD0" d="M251.7,774c2.2,1.9,4.8,2.9,7.4,2.9c3.1,0,6.5-1.4,8.6-3.8c1.7-2.2,43.2-50.7,11.8-90.3
			c-17.3-21.8-4.6-34.6-1.7-37c4.8-4.1,5.8-11,1.7-16.1c-3.8-5-11-5.8-16.1-1.9c-12,9.6-27.9,36.3-1.9,69.1
			c19.4,24.5-10.8,60.5-11.3,61C246.5,762.7,246.9,769.9,251.7,774z"/>
		<path fill="#E2DCD0" d="M352.1,774c2.2,1.9,4.8,2.9,7.4,2.9c3.1,0,6.5-1.4,8.6-3.8c1.7-2.2,43.2-50.7,11.8-90.3
			c-17.3-21.8-4.6-34.6-1.7-37c4.8-4.1,5.8-11,1.7-16.1c-3.8-5-11-5.8-16.1-1.9c-12,9.6-27.9,36.3-1.9,69.1
			c19.4,24.5-10.8,60.5-11.3,61C346.8,762.7,347.3,769.9,352.1,774z"/>
	</g>
</g>
</svg>
