<?xml version="1.0" encoding="utf-8"?>
<!-- Generator: Adobe Illustrator 18.1.1, SVG Export Plug-In . SVG Version: 6.00 Build 0)  -->
<svg version="1.1" id="Capa_1" xmlns="http://www.w3.org/2000/svg" xmlns:xlink="http://www.w3.org/1999/xlink" x="0px" y="0px"
	 viewBox="159.5 75 472.9 462" enable-background="new 159.5 75 472.9 462" xml:space="preserve">
<g>
	<path fill="#E2DCD0" d="M388.7,270.3l-33.5-31c-8,16.5-18.9,30.4-36.3,37.3l26.8,29c3.6-1.7,7.5-2.7,11.7-2.9L388.7,270.3z"/>
	<path fill="#E2DCD0" d="M312.3,262.3c0-0.2,0-0.4,0.1-0.5c0.8-3.7,2.9-7.6,6.2-11l11.4-11.4c3.4-3.4,7.4-5.5,11.2-6.3
		c0.1,0,0.1,0,0.2,0l26.3-97.9l-97.4-54.7l-44.4,42.3l69.6,43.9l-11.7,38.1l-38.2,11.7l-43.8-69.6l-42.3,44.4l54.7,97.4L312.3,262.3
		z"/>
	<path fill="#E2DCD0" d="M382.5,322.6l-2.2-2.2c-6.3-6.3-14.1-9.9-21.6-9.9c-5.7,0-11,2.1-14.8,5.9L174.1,467.7
		c-4.3,4.3-7.1,11.4-7.3,18.6c-0.2,8,2.6,15.5,8.1,20.9l20.9,20.9c5.6,5.6,13.8,8.9,22.5,8.9c7.6,0,14.6-2.5,18.9-6.7L388,360.8
		C396.8,351.8,394.2,334.4,382.5,322.6z"/>
	<path fill="#E2DCD0" d="M601.5,467.6L431.8,310.2l-30.8,32c0.9,6.9-0.2,13.6-3.5,19.1l149.3,161c0.9,0.8,2.1,1.2,3.6,1.2
		c7.3,0,21-8.4,26.8-14.1l11.4-11.4C595.4,491,606.3,472.4,601.5,467.6z M552.6,496.4c-10.7,0-19.4-8.7-19.4-19.4
		c0-10.7,8.7-19.4,19.4-19.4S572,466.3,572,477C571.9,487.7,563.2,496.4,552.6,496.4z"/>
	<path fill="#E2DCD0" d="M628.4,213.4c-5.4-5.4-14.2-5.4-19.6,0l-5.5,5.5c-4.5-6.3-12.1-16.8-11.1-20.4c4-15.4-27.4-51.8-27.4-51.8
		c-77.9-78-130-76.2-154.8-67.7c-10,3.4-8.1,5.6,2.2,7.4C487.3,99.6,496.7,144,484,161c-4.9,6.6-6.3,11.6-5.5,16.1
		c0.5,2.6,1.9,5.1,3.7,7.6L367.4,303.9c6.6,1.8,13,5.4,18.5,10.9l2.2,2.2c4.9,4.9,8.3,10.4,10.4,16.1L512,215.3
		c2.2,1.8,4.4,3.3,6.7,4.6c6.2,3.2,12.9,4.2,20.3,0.5c8.4-4.2,33.3,16.1,40.8,21.6c0.1,0.1,0.1,0.1,0.2,0.1l-4.2,4.1
		c-5.4,5.4-5.4,14.2,0,19.6s14.2,5.4,19.6,0l32.8-32.8C633.8,227.6,633.8,218.8,628.4,213.4z"/>
</g>
</svg>
