<?xml version="1.0" encoding="utf-8"?>
<!-- Generator: Adobe Illustrator 18.1.1, SVG Export Plug-In . SVG Version: 6.00 Build 0)  -->
<svg version="1.1" id="Capa_1" xmlns="http://www.w3.org/2000/svg" xmlns:xlink="http://www.w3.org/1999/xlink" x="0px" y="0px"
	 viewBox="218 -35 611.9 605.5" enable-background="new 218 -35 611.9 605.5" xml:space="preserve">
<g>
	<g>
		<path fill="#E2DCD0" d="M594.9,504.7c-20.7-2.3-38.3-21.1-54-38c-5.7-6.1-11.9-12.5-16.8-17.1c-5.3,4.7-11.2,10.9-16.9,17.1
			c-15.6,16.8-33.3,35.7-54,38c3.2,36.6,33.6,65.3,70.9,65.8C561.4,570.1,591.7,541.3,594.9,504.7z"/>
		<path fill="#E2DCD0" d="M256.7,248.1c31,0,53.6-6.7,69.9-15.4V103.9c0-6.8,5.5-12.3,12.3-12.3s12.3,5.5,12.3,12.3v110.5V244
			l-3.5,3.6c-24,24.9-37.3,58.8-37.3,95.5c0,76,62.1,137.9,138.4,137.9c1.2,0,2.4-0.2,3.8-0.6c11.3-3,25-17.7,36.2-29.8
			c7.6-8.2,14.9-16,22.3-21.8V381c-6.3-1.1-12.3-3-17.9-5.6c-25-11.6-42.4-36.9-42.4-66.3c0-40.3,32.6-73,73-73.1
			c40.2,0.1,73,32.8,73,73.1c0,29.4-17.3,54.8-42.4,66.3c-5.6,2.6-11.6,4.5-17.9,5.6v47.8c7,5.9,14.7,13.7,22.2,21.8
			c11.3,12.1,24.9,26.9,36.2,29.8c1.4,0.4,2.5,0.6,3.8,0.6c76.3,0,138.4-61.8,138.4-137.9c0-36.7-13.2-70.6-37.2-95.5l-3.4-3.6
			v-29.6V103.9c0-6.8,5.5-12.3,12.3-12.3s12.4,5.5,12.4,12.3v128.9c16.2,8.7,38.9,15.4,69.9,15.4C878.6,248.1,814.6-35,635-35H524
			H412.9C233.3-35,169.4,248.1,256.7,248.1z M571.2,125.5c0.2,0,0.4,0,0.6,0c13,0.4,23.5,11,23.5,24.2c0,6.1-2.3,11.6-5.9,15.8
			c-4.3,5-10.6,8.2-17.7,8.3c-0.2,0-0.4,0-0.6,0c-13,0-23.7-10.3-24.2-23.3c0-0.3,0-0.6,0-0.9C547.1,136.4,557.9,125.5,571.2,125.5z
			 M476.6,125.5c13.3,0,24.2,10.9,24.2,24.2c0,0.3,0,0.6,0,0.9c-0.5,12.9-11.1,23.3-24.2,23.3c-7.3,0-13.8-3.2-18.3-8.4
			c-3.7-4.2-5.9-9.8-5.9-15.8C452.5,136.4,463.3,125.5,476.6,125.5z"/>
	</g>
</g>
</svg>
