<?xml version="1.0" encoding="utf-8"?>
<!-- Generator: Adobe Illustrator 18.1.1, SVG Export Plug-In . SVG Version: 6.00 Build 0)  -->
<svg version="1.1" id="Capa_1" xmlns="http://www.w3.org/2000/svg" xmlns:xlink="http://www.w3.org/1999/xlink" x="0px" y="0px"
	 viewBox="409.3 -96.3 345.5 611.9" enable-background="new 409.3 -96.3 345.5 611.9" xml:space="preserve">
<g>
	<g>
		<path fill="#E2DCD0" d="M668.9-41.3v-39.4c0-9.3-8-16.4-17.2-15.5c-26.2,2.8-76.6,13.3-111.7,52.7c16,10.4,28.7,21.3,37.9,30.3
			C605.2-24.1,635.7-33.4,668.9-41.3z"/>
		<path fill="#E2DCD0" d="M506.9,22c2.5-1.6,5-3.1,7.5-4.6c13.7-8.1,28.5-15.7,44.5-22.7c-8-7.3-18.2-15.5-30.5-23.4
			C512.5-39,493-48.6,470.3-54.9c-1.7-0.5-3.4-0.7-5-0.7c-10,0-18.7,8-18.7,18.7V71.9C462.8,53.7,483,36.9,506.9,22z"/>
		<path fill="#E2DCD0" d="M495.8,277.3l-14.7,26.2c-4.5,8.1,1,18.1,10.3,18.5c3,0.1,6.2,0.2,9.6,0.2c14.4,0,32-1.6,47.6-7.5v180.1
			c0,11.5,9.3,20.8,20.8,20.8s20.8-9.3,20.8-20.8V314.7c15.6,5.9,33.2,7.5,47.6,7.5c3.4,0,6.7-0.1,9.6-0.2
			c9.3-0.4,14.8-10.4,10.3-18.5L643,277.3c45.4-18.7,76-54.2,76-94.9c0-56.9-18.6-74.1-30.3-114.3c-7.2-24.8,1.4-56.6,9.1-77.2
			c3.1-8.3-3.2-16.8-11.6-16.8c-0.9,0-1.9,0.1-2.8,0.3c-5,1.1-9.8,2.2-14.6,3.4c-58,14.2-116.7,34.6-166,69.3
			c-40.7,28.6-89.3,80.8-83,135.4C419.8,223.2,450.4,258.6,495.8,277.3z"/>
		<path fill="#E2DCD0" d="M610.9,429.2c-0.3,7.6,5.1,14.4,12.6,15.8c30.2,5.7,107.1,8.6,130.9-101.9c2.1-9.6-5.2-18.7-15-18.8
			C626.4,322.8,612.1,398.4,610.9,429.2z"/>
		<path fill="#E2DCD0" d="M514.8,482.7c8-1.3,13.6-8.4,13.1-16.4c-1.7-26.6-15.5-83.9-103-84.2c-10-0.1-17.4,9.3-15.2,19
			C429.5,486.2,488.5,487,514.8,482.7z"/>
	</g>
</g>
</svg>
