<?xml version="1.0" encoding="utf-8"?>
<!-- Generator: Adobe Illustrator 18.1.1, SVG Export Plug-In . SVG Version: 6.00 Build 0)  -->
<svg version="1.1" id="Layer_1" xmlns="http://www.w3.org/2000/svg" xmlns:xlink="http://www.w3.org/1999/xlink" x="0px" y="0px"
	 viewBox="182.1 277.6 184.6 282.9" enable-background="new 182.1 277.6 184.6 282.9" xml:space="preserve">
<g id="Lay">
	
		<text transform="matrix(1 0 0 1 231.9617 309.7397)" display="none" fill="#6D9ABB" enable-background="new    " font-family="'NanumPen'" font-size="42.8242">Task-all</text>
</g>
<g id="_x28_c_x29_TECHFUND">
	<g>
		<path fill="#6D9ABB" d="M350.4,333.7c-26.4-21.2-52.3-7.8-55.3-6.1c-7.8,3.9-16.9,13.4-21.6,19c-7.4-7.8-15.1-14.7-15.6-15.1
			l-0.4-0.4c-31.1-20.8-58.4,4.3-60.5,6.1c-30.3,28.1-5.2,60.1-4.8,60.5l27.7,28.5l31.1-39.8l-17.3-20.3l-6.5,5.6l13,15.1l-8.2,10.4
			l-15.6-17.7c-0.9-1.3-9.1-13.4,2.2-22.5c12.5-9.9,23.3-0.4,24.6,1.3l25.1,29L228,437.1l5.6,6.1l68.7-85.2
			c0.4-0.4,11.2-13.4,26.8-2.6c1.3,0.9,10.8,9.5,4.3,20.3l-31.1,37.2l-8.6-10.4l26.8-32.9l-6.5-5.6l-71.3,88.6l5.6,6.1l26.4-32.4
			l28.5,31.6l57.1-70l0.4-0.4C378.9,355.8,350.8,333.7,350.4,333.7z M353.4,383l-50.6,61.8l-22.5-25.1l8.2-10.4l13.8,16.9l38-45.4
			l0.4-0.4c8.6-14.3,0-27.2-6.1-32h-0.4c-17.7-12.1-32.9-2.6-38.5,4.3l-22.5,27.7l-24.2-27.7l0,0c-6.1-6.1-21.2-14.3-36.3-1.7
			c-14.3,11.7-8.6,27.7-3.5,34.2l17.3,19l-7.4,9.5l-20.8-21.2c-1.7-2.2-19.9-26.8,3.9-48.4l0,0c0.9-0.9,23.3-22.5,49.3-5.6
			c1.7,1.3,10.8,9.5,18.2,17.7l3.5,3.9l3-3.9c3.5-4.3,14.3-16.9,21.6-20.3l0.4-0.4c0.4,0,22.5-13.4,45.8,5.2
			C346.1,341.1,367.7,357.9,353.4,383z"/>
	</g>
</g>
</svg>
