<?xml version="1.0" encoding="utf-8"?>
<!-- Generator: Adobe Illustrator 18.1.1, SVG Export Plug-In . SVG Version: 6.00 Build 0)  -->
<svg version="1.1" id="Capa_1" xmlns="http://www.w3.org/2000/svg" xmlns:xlink="http://www.w3.org/1999/xlink" x="0px" y="0px"
	 viewBox="-123.5 374.4 476.3 613.2" enable-background="new -123.5 374.4 476.3 613.2" xml:space="preserve">
<g>
	<path fill="#E2DCD0" d="M265.7,723.3V487.1c0-63.1-51-112.7-114.1-112.7H76.4c-63.1,0-112.7,51-112.7,112.7v236.2
		c-52.3,24.2-87.2,77.8-87.2,138.2v83.2c0,24.2,18.8,42.9,42.9,42.9h1.3h387.9h1.3c24.2,0,42.9-18.8,42.9-42.9v-83.2
		C351.6,801.2,316.7,748.8,265.7,723.3z M-81.9,959.6c-8.1-1.3-13.4-8.1-13.4-16.1v-83.2c0-57.7,38.9-107.4,93.9-122.1v104.7
		c0,0-2.7,1.3-6.7,2.7C-24.2,852.2-35,867-35,884.4v76.5h-47C-80.6,959.6-81.9,959.6-81.9,959.6z M3.9,526.1
		c87.2,2.7,139.6-32.2,167.8-61.7c33.6,33.6,47,79.2,52.3,104.7c-6.7,65.8-53.7,135.6-110.1,135.6c-61.7,0-111.4-83.2-111.4-153
		C3.9,543.5,3.9,534.1,3.9,526.1z M37.5,728.7l32.2-8.1c9.4,5.4,20.1,8.1,30.9,9.4c4,0,8.1,1.3,12.1,1.3s8.1,0,12.1-1.3
		c10.7-1.3,21.5-4,30.9-9.4l33.6,8.1v115.4c-13.4,4-25.5,12.1-34.9,22.8c-10.7,12.1-22.8,18.8-42.9,18.8l0,0
		c-14.8,0-29.5-6.7-40.3-18.8c-9.4-10.7-21.5-18.8-34.9-22.8L37.5,728.7L37.5,728.7z M236.1,845.5c-4-1.3-6.7-2.7-6.7-2.7V738.1
		c55,14.8,93.9,64.4,93.9,120.8v83.2c0,9.4-6.7,16.1-16.1,16.1h-45.6v-76.5C263,867,252.2,850.8,236.1,845.5z"/>
</g>
</svg>
