<?xml version="1.0" encoding="utf-8"?>
<!-- Generator: Adobe Illustrator 18.1.1, SVG Export Plug-In . SVG Version: 6.00 Build 0)  -->
<svg version="1.1" id="Capa_1" xmlns="http://www.w3.org/2000/svg" xmlns:xlink="http://www.w3.org/1999/xlink" x="0px" y="0px"
	 viewBox="0 0 612 792" enable-background="new 0 0 612 792" xml:space="preserve">
<g>
	<path fill="#6D9ABB" d="M293.4,523.8c0-7,5.7-12.6,12.6-12.6c7,0,12.6,5.7,12.6,12.6v63.9c0,7-5.7,12.6-12.6,12.6
		c-7,0-12.6-5.7-12.6-12.6V523.8z"/>
	<path fill="#6D9ABB" d="M270.7,475.9c0,9.7,4,18.6,10.3,25l0.5,0.6c6.3,6,14.9,9.7,24.4,9.7c9.7,0,18.6-4,25-10.3l0.6-0.6
		c6-6.3,9.7-14.9,9.7-24.4c0-9.7-3.9-18.6-10.3-25l0,0c-6.4-6.4-15.2-10.3-25-10.3s-18.6,3.9-25,10.3l-0.1,0.1
		C274.6,457.3,270.7,466.1,270.7,475.9L270.7,475.9z M263.2,518.7c-10.9-10.9-17.7-26.1-17.7-42.8c0-16.7,6.8-31.8,17.7-42.7
		l0.1-0.1c11-11,26.1-17.7,42.8-17.7c16.7,0,31.9,6.8,42.8,17.7l0,0l0,0c11,11,17.7,26.1,17.7,42.7c0,16.2-6.4,31-16.9,41.9
		l-0.8,0.9c-10.9,10.9-26.1,17.7-42.8,17.7c-16.2,0-31-6.5-41.9-16.9L263.2,518.7z"/>
	<path fill="#6D9ABB" d="M296.6,280.8c-7,0-12.6-5.7-12.6-12.6c0-7,5.7-12.6,12.6-12.6h265c7,0,12.6,5.7,12.6,12.6v0.3v255.3v0
		c0,74.1-30,141.1-78.6,189.6c-48.5,48.5-115.5,78.5-189.6,78.5v0.1H306c-74,0-141.1-30-189.6-78.6l0,0
		c-48.5-48.5-78.6-115.6-78.6-189.6V268.2c0-7,5.7-12.6,12.6-12.6h0.3h127.5c7,0,12.6,5.7,12.6,12.6c0,7-5.7,12.6-12.6,12.6H63.1
		v243c0,67.1,27.2,127.8,71.2,171.8l0,0l0,0c43.9,43.9,104.6,71.1,171.8,71.1h0.1v0.1c67,0,127.8-27.2,171.7-71.2
		c44-44,71.2-104.7,71.2-171.7v0v-243L296.6,280.8L296.6,280.8z"/>
	<path fill="#6D9ABB" d="M485.1,396c0-6.9,5.6-12.6,12.6-12.6c6.9,0,12.6,5.6,12.6,12.6v127.8h0.1v0c0,56.4-22.9,107.5-59.8,144.4
		l-0.8,0.7c-36.9,36.6-87.7,59.1-143.6,59.1H306c-56.4,0-107.5-22.9-144.4-59.9l-0.1,0.1c-37-37-59.8-88.1-59.8-144.5V332.1
		c0-7,5.7-12.6,12.6-12.6h0.3h383c7,0,12.6,5.7,12.6,12.6c0,7-5.7,12.6-12.6,12.6H126.9v179.1c0,49.4,20.1,94.2,52.4,126.6v0l0,0
		c32.3,32.4,77.1,52.4,126.6,52.4h0.1c49.1,0,93.7-19.8,126-51.8l0.6-0.7c32.4-32.4,52.4-77.2,52.4-126.6v0h0.1L485.1,396z"/>
	<path fill="#6D9ABB" d="M446.4,204.3c0,7-5.7,12.6-12.6,12.6c-7,0-12.6-5.7-12.6-12.6v-63.9c0-31.8-12.9-60.6-33.7-81.5
		c-20.8-20.8-49.7-33.7-81.5-33.7c-15.7,0-30.6,3.1-44.1,8.7c-14,5.8-26.7,14.4-37.3,25c-20.8,20.8-33.7,49.6-33.7,81.4v63.9v63.9
		c0,7-5.7,12.6-12.6,12.6s-12.6-5.7-12.6-12.6v-63.9v-63.9c0-38.8,15.7-73.9,41.1-99.3c12.9-12.9,28.4-23.3,45.6-30.4
		C268.9,3.8,287.1,0,306,0c38.7,0,73.9,15.7,99.3,41.1l0.1,0.1c25.4,25.4,41.1,60.5,41.1,99.2V204.3z"/>
	<path fill="#6D9ABB" d="M382.5,204.3c0,7-5.7,12.6-12.6,12.6c-7,0-12.6-5.7-12.6-12.6v-63.9c0-14.2-5.7-27-15-36.2l-0.1-0.1
		c-9.2-9.2-22.1-15-36.2-15c-7,0-13.7,1.4-19.6,3.8v0c-6.2,2.6-11.9,6.4-16.6,11.2c-4.8,4.8-8.7,10.4-11.2,16.6l0,0.1h0
		c-2.5,6-3.8,12.6-3.8,19.6v31.9v95.9c0,7-5.7,12.6-12.6,12.6s-12.6-5.7-12.6-12.6v-95.9v-31.9c0-10.3,2.1-20.2,5.9-29.3l0,0
		c3.9-9.4,9.6-17.9,16.6-24.9c7-7,15.4-12.7,24.8-16.6v0l0.1,0c9.1-3.8,19-5.8,29.2-5.8c21,0,40.2,8.6,54,22.4l0,0.1l0,0l0,0
		c13.8,13.9,22.4,33,22.4,54.1V204.3L382.5,204.3z"/>
</g>
</svg>
