<?xml version="1.0" encoding="utf-8"?>
<!-- Generator: Adobe Illustrator 18.1.1, SVG Export Plug-In . SVG Version: 6.00 Build 0)  -->
<svg version="1.1" id="Capa_1" xmlns="http://www.w3.org/2000/svg" xmlns:xlink="http://www.w3.org/1999/xlink" x="0px" y="0px"
	 viewBox="0 0 612 792" enable-background="new 0 0 612 792" xml:space="preserve">
<g>
	<g>
		<path fill="#6D9ABB" d="M124,417.9l-59.1,47.3c-4.1,3.3-10.1,2.6-13.4-1.5c-1.4-1.8-2.1-3.9-2.1-6h-0.1v-40.6
			c-12.4-2.1-23.5-8-32.1-16.5l0,0l0,0C6.7,389.9,0,375.2,0,358.9V149c0-16.2,6.7-31,17.3-41.7l0.7-0.6C28.6,96.4,43.1,90,59,90
			h345.8c16.2,0,31,6.7,41.7,17.3c10.7,10.7,17.3,25.4,17.3,41.7v209.9c0,16.2-6.7,31-17.3,41.7l-0.7,0.6
			c-10.6,10.3-25.1,16.7-41,16.7L124,417.9L124,417.9z M68.5,437.9l45.5-36.4c1.7-1.7,4.1-2.7,6.7-2.7h284.1
			c10.7,0,20.5-4.3,27.7-11.2l0.4-0.5c7.2-7.2,11.7-17.2,11.7-28.1V149c0-10.9-4.5-20.9-11.7-28.1c-7.2-7.2-17.2-11.7-28.1-11.7H59
			c-10.7,0-20.5,4.3-27.7,11.2l-0.4,0.5c-7.2,7.2-11.7,17.2-11.7,28.1v209.9c0,10.9,4.5,20.9,11.7,28.1l0,0
			c7.2,7.2,17.1,11.6,27.9,11.7H59c5.3,0,9.6,4.3,9.6,9.6L68.5,437.9L68.5,437.9z"/>
	</g>
	<path fill="#6D9ABB" d="M83.7,183.3c-5.3,0-9.6-4.3-9.6-9.6s4.3-9.6,9.6-9.6h296.4c5.3,0,9.6,4.3,9.6,9.6s-4.3,9.6-9.6,9.6
		C380.1,183.3,83.7,183.3,83.7,183.3z"/>
	<path fill="#6D9ABB" d="M83.7,242.2c-5.3,0-9.6-4.3-9.6-9.6s4.3-9.6,9.6-9.6h296.4c5.3,0,9.6,4.3,9.6,9.6s-4.3,9.6-9.6,9.6H83.7z"
		/>
	<path fill="#6D9ABB" d="M491.3,418c-5.3,0-9.6-4.3-9.6-9.6c0-5.3,4.3-9.6,9.6-9.6h37.1c5.3,0,9.6,4.3,9.6,9.6
		c0,5.3-4.3,9.6-9.6,9.6H491.3z"/>
	<path fill="#6D9ABB" d="M231.9,476.9c-5.3,0-9.6-4.3-9.6-9.6s4.3-9.6,9.6-9.6h296.4c5.3,0,9.6,4.3,9.6,9.6s-4.3,9.6-9.6,9.6H231.9z
		"/>
	<path fill="#6D9ABB" d="M231.9,535.9c-5.3,0-9.6-4.3-9.6-9.6s4.3-9.6,9.6-9.6h296.4c5.3,0,9.6,4.3,9.6,9.6s-4.3,9.6-9.6,9.6H231.9z
		"/>
	<path fill="#6D9ABB" d="M231.9,594.9c-5.3,0-9.6-4.3-9.6-9.6s4.3-9.6,9.6-9.6h210c5.3,0,9.6,4.3,9.6,9.6s-4.3,9.6-9.6,9.6H231.9z"
		/>
	<path fill="#6D9ABB" d="M148.2,457.8c0-5.3,4.3-9.6,9.6-9.6s9.6,4.3,9.6,9.6v135.9c0,10.9,4.5,20.9,11.7,28.1l0.4,0.5
		c7.2,6.9,17,11.2,27.7,11.2h284.1c2.6,0,5,1.1,6.7,2.7l45.5,36.4V643c0-5.3,4.3-9.5,9.5-9.5l0,0c10.9,0,20.9-4.5,28.1-11.7l0,0
		c7.2-7.2,11.7-17.2,11.7-28.1V396c0-10.9-4.5-20.9-11.7-28.1l-0.4-0.5c-7.2-6.9-17-11.2-27.7-11.2h-49.4c-5.3,0-9.6-4.3-9.6-9.6
		c0-5.3,4.3-9.6,9.6-9.6H553c15.9,0,30.3,6.4,41,16.7l0.7,0.6C605.4,365,612,379.7,612,396v197.6c0,16.2-6.7,31-17.3,41.7l0,0l0,0
		c-8.5,8.5-19.7,14.5-32.1,16.5v40.6l0,0c0,2.1-0.7,4.2-2.1,6c-3.3,4.1-9.3,4.8-13.4,1.5L488,652.6H207.2c-15.9,0-30.3-6.4-41-16.7
		l-0.7-0.6c-10.7-10.7-17.3-25.4-17.3-41.7V457.8L148.2,457.8z"/>
	<path fill="#6D9ABB" d="M83.7,301.2c-5.3,0-9.6-4.3-9.6-9.6c0-5.3,4.3-9.6,9.6-9.6h210c5.3,0,9.6,4.3,9.6,9.6s-4.3,9.6-9.6,9.6
		H83.7z"/>
</g>
</svg>
