<?xml version="1.0" encoding="utf-8"?>
<!-- Generator: Adobe Illustrator 18.1.1, SVG Export Plug-In . SVG Version: 6.00 Build 0)  -->
<svg version="1.1" id="Capa_1" xmlns="http://www.w3.org/2000/svg" xmlns:xlink="http://www.w3.org/1999/xlink" x="0px" y="0px"
	 viewBox="90 181.9 612 430.1" enable-background="new 90 181.9 612 430.1" xml:space="preserve">
<g>
	<path fill="#E2DCD0" d="M111.5,468.5V208.1c0-14.5,11.7-26.2,26.2-26.2h260.2c14.5,0,26.2,11.7,26.2,26.2v260.4
		c0,4.8-3.9,8.7-8.7,8.7H120.2C115.4,477.3,111.5,473.3,111.5,468.5z M321.6,557.7c0,30-24.3,54.3-54.3,54.3S213,587.7,213,557.7
		s24.3-54.3,54.3-54.3S321.6,527.7,321.6,557.7z M294.5,557.7c0-15-12.2-27.2-27.2-27.2s-27.2,12.2-27.2,27.2s12.2,27.2,27.2,27.2
		S294.5,572.7,294.5,557.7z M220.5,503.4H98.7c-4.8,0-8.7,3.9-8.7,8.7v26.5c0,4.8,3.9,8.7,8.7,8.7h97.6
		C198.9,529.9,207.7,514.4,220.5,503.4z M605.9,557.7c0,30-24.3,54.3-54.3,54.3s-54.3-24.3-54.3-54.3s24.3-54.3,54.3-54.3
		C581.6,503.4,605.9,527.7,605.9,557.7z M578.8,557.7c0-15-12.2-27.2-27.2-27.2s-27.2,12.2-27.2,27.2s12.2,27.2,27.2,27.2
		S578.8,572.7,578.8,557.7z M702,512.1v26.5c0,4.8-3.9,8.7-8.7,8.7h-70.7c-5.1-34.7-34.9-61.4-71-61.4s-65.9,26.7-71,61.4H338.3
		c-2.5-17.5-11.4-32.9-24.2-44h135V253.6c0-9.6,7.8-17.5,17.5-17.5H549c23.2,0,44.9,11.5,57.9,30.8l53.2,78.7
		c7.8,11.5,12,25.2,12,39.1v118.7h21.3C698.1,503.4,702,507.3,702,512.1z M613.4,347.6l-42.5-60.4c-1.6-2.3-4.3-3.7-7.1-3.7h-66.3
		c-4.8,0-8.7,3.9-8.7,8.7v60.4c0,4.8,3.9,8.7,8.7,8.7h108.8C613.3,361.4,617.5,353.4,613.4,347.6z"/>
</g>
</svg>
