<?xml version="1.0" encoding="utf-8"?>
<!-- Generator: Adobe Illustrator 18.1.1, SVG Export Plug-In . SVG Version: 6.00 Build 0)  -->
<svg version="1.1" id="Capa_1" xmlns="http://www.w3.org/2000/svg" xmlns:xlink="http://www.w3.org/1999/xlink" x="0px" y="0px"
	 viewBox="0 0 612 792" enable-background="new 0 0 612 792" xml:space="preserve">
<g>
	<path fill="#6D9ABB" d="M602.8,730.1c0,6.8-5.5,12.3-12.3,12.3c-6.8,0-12.3-5.5-12.3-12.3l0.2-705.4H33.8l-0.1,731.9l55.1-36.7
		c4.3-2.8,9.6-2.7,13.6,0l67.5,45l67.3-44.9c4.3-2.8,9.7-2.7,13.7-0.1l67.5,45l67.3-44.9c4.3-2.8,9.6-2.7,13.7-0.1l67.5,45
		l67.3-44.9c5.6-3.8,13.3-2.3,17.1,3.4c3.8,5.6,2.3,13.3-3.4,17.1l-74.2,49.5c-4,2.7-9.4,2.9-13.7,0.1l-67.5-45l-67.3,44.9
		c-4,2.7-9.4,2.9-13.7,0.1l-67.5-45l-67.3,44.9c-4,2.7-9.4,2.9-13.7,0.1l-67.5-45l-67.5,45l0,0c-1.9,1.3-4.3,2-6.8,2
		C14.6,792,9,786.5,9,779.7l0.2-766l-0.1-1.3C9.1,5.5,14.7,0,21.5,0h569.2v0.1c6.8,0,12.3,5.5,12.3,12.3L602.8,730.1z"/>
	<path fill="#6D9ABB" d="M120,420.9c-6.8,0-12.4-5.5-12.4-12.4c0-6.8,5.5-12.4,12.4-12.4h372.1c6.8,0,12.4,5.5,12.4,12.4
		c0,6.8-5.5,12.4-12.4,12.4H120z"/>
	<path fill="#6D9ABB" d="M120,495.2c-6.8,0-12.4-5.5-12.4-12.4s5.5-12.4,12.4-12.4h372.1c6.8,0,12.4,5.5,12.4,12.4
		s-5.5,12.4-12.4,12.4H120z"/>
	<path fill="#6D9ABB" d="M120,569.4c-6.8,0-12.4-5.5-12.4-12.4c0-6.8,5.5-12.4,12.4-12.4h274.3c6.8,0,12.4,5.5,12.4,12.4
		c0,6.8-5.5,12.4-12.4,12.4H120z"/>
	<path fill="#6D9ABB" d="M120.7,123.7c-6.8,0-12.4-5.5-12.4-12.4S113.9,99,120.7,99h372.1c6.8,0,12.4,5.5,12.4,12.4
		s-5.5,12.4-12.4,12.4H120.7z"/>
	<path fill="#6D9ABB" d="M120.7,198c-6.8,0-12.4-5.5-12.4-12.4c0-6.8,5.5-12.4,12.4-12.4h372.1c6.8,0,12.4,5.5,12.4,12.4
		c0,6.8-5.5,12.4-12.4,12.4H120.7z"/>
	<path fill="#6D9ABB" d="M120.7,272.3c-6.8,0-12.4-5.5-12.4-12.4c0-6.8,5.5-12.4,12.4-12.4h372.1c6.8,0,12.4,5.5,12.4,12.4
		c0,6.8-5.5,12.4-12.4,12.4H120.7z"/>
	<path fill="#6D9ABB" d="M120,346.6c-6.8,0-12.4-5.5-12.4-12.4s5.5-12.4,12.4-12.4h372.1c6.8,0,12.4,5.5,12.4,12.4
		c0,6.8-5.5,12.4-12.4,12.4H120z"/>
</g>
</svg>
