<?xml version="1.0" encoding="utf-8"?>
<!-- Generator: Adobe Illustrator 18.1.1, SVG Export Plug-In . SVG Version: 6.00 Build 0)  -->
<svg version="1.1" id="Capa_1" xmlns="http://www.w3.org/2000/svg" xmlns:xlink="http://www.w3.org/1999/xlink" x="0px" y="0px"
	 viewBox="148.6 107.8 464.8 612" enable-background="new 148.6 107.8 464.8 612" xml:space="preserve">
<g>
	<g>
		<g>
			<path fill="#E2DCD0" d="M561.6,107.8H200.3c-28.5,0-51.7,23.1-51.7,51.6v477.4c0,23.4,15.6,42.8,36.9,49.2V536.2
				c0-9.9,3.2-19,8.3-26.6V163.2c0-6.2,5.1-11.3,11.2-11.3h351.8c6.2,0,11.2,5.1,11.2,11.3v419.2c0,6.2-5.1,11.3-11.2,11.3h-80.9
				l-63.5,95h149.3c28.5,0,51.7-23.1,51.7-51.6V159.5C613.2,130.9,590.1,107.8,561.6,107.8z"/>
			<path fill="#E2DCD0" d="M427,440.1c0.6,0.1,1.3,0.4,1.9,0.4c3.9,0,7.9-1.5,10.9-4.5c16-16,24.7-37.1,24.7-59.6
				s-8.8-43.6-24.7-59.6c-15.8-16-37.1-24.7-59.6-24.7s-43.6,8.8-59.6,24.7s-24.7,37.1-24.7,59.6c0,21.6,8.2,41.7,22.9,57.5
				c2.2-0.3,4.3-0.8,6.6-0.8c1.8,0,3.7,0.1,5.5,0.3v-36.2c-2.7-6.4-4.1-13.4-4.1-20.6c0-14.3,5.6-27.7,15.6-37.8
				c20.2-20.2,55.4-20.2,75.7,0c10.1,10.1,15.6,23.6,15.6,37.8c0,9.1-2.4,17.6-6.7,25.4L427,440.1L427,440.1z"/>
			<path fill="#E2DCD0" d="M464.6,475.9c6.4,0,12.7,1.8,18.6,4.2c0.1-0.1,0.3-0.2,0.5-0.3c27.7-27.7,42.9-64.3,42.9-103.4
				s-15.2-75.9-42.9-103.4c-57.1-57.1-149.8-57.1-206.9,0c-27.7,27.7-42.9,64.3-42.9,103.4c0,27.8,7.8,54.3,22.2,77.2
				c4.5-1.4,9.3-2.3,14.3-2.3c5.4,0,10.6,0.8,15.4,2.5c1.4-2,3.2-3.7,4.8-5.5c-16.5-20.5-25.9-45.4-25.9-72.1
				c0-30.9,12-59.9,33.8-81.7c45-45,118.3-45,163.4,0c21.9,21.9,33.8,50.8,33.8,81.7s-12,59.9-33.8,81.7c-5,5-5.6,12.5-2.2,18.4
				C461.3,476.4,462.9,475.9,464.6,475.9z"/>
			<path fill="#E2DCD0" d="M479.8,501.1c-4.6-3.2-9.9-4.6-15.2-4.6c-8.9,0-17.6,4.3-22.9,12.3L411,554.9c-0.4,0.7-1.3,1.1-2,1.1
				c-0.2,0-0.4,0-0.7-0.1c-1.1-0.3-1.7-1.3-1.7-2.3V372.7c0-15.2-12.4-27.6-27.6-27.6s-27.6,12.4-27.6,27.6v99.7
				c-3.6-10.9-13.8-18.9-26-18.9c-15.2,0-27.5,12.4-27.5,27.5v18.4c0-15.2-12.4-27.6-27.6-27.6c-15.2,0-27.5,12.4-27.5,27.6v10.9
				c-2.9-1.1-5.9-1.7-9.2-1.7c-15.2,0-27.5,12.4-27.5,27.5v172.8c0,6,4.9,10.9,10.9,10.9h143.9c3.6,0,7.1-1.8,9.1-4.9l117.5-175.7
				C495.9,526.5,492.5,509.5,479.8,501.1z"/>
		</g>
	</g>
</g>
</svg>
