<?xml version="1.0" encoding="utf-8"?>
<!-- Generator: Adobe Illustrator 18.1.1, SVG Export Plug-In . SVG Version: 6.00 Build 0)  -->
<svg version="1.1" id="Capa_1" xmlns="http://www.w3.org/2000/svg" xmlns:xlink="http://www.w3.org/1999/xlink" x="0px" y="0px"
	 viewBox="0 0 612 792" enable-background="new 0 0 612 792" xml:space="preserve">
<g>
	<path fill="#6D9ABB" d="M165.5,744.2c-6,0-10.9-4.9-10.9-10.9s4.9-10.9,10.9-10.9h337.3c6,0,10.9,4.9,10.9,10.9
		s-4.9,10.9-10.9,10.9H165.5L165.5,744.2z M559,744.2h42.2c6,0,10.9-4.9,10.9-10.9V733c0-80.4-16.6-152.3-51.3-210
		c-33-54.9-82.1-97-148.9-121.4c-5.6-2-11.9,0.9-13.9,6.5c-2,5.6,0.9,11.9,6.5,13.9c61.8,22.6,107.2,61.4,137.7,112.1
		c31,51.7,46.6,116,48,188.3H559c-6,0-10.9,4.9-10.9,10.9C548.1,739.3,553,744.2,559,744.2L559,744.2z M200.1,401.6
		C133.4,426,84.3,468,51.3,522.9C16.6,580.8,0,652.8,0,733.3c0,6,4.9,10.9,10.9,10.9s10.9-4.9,10.9-10.9
		c0-76.7,15.5-144.9,48.1-199.2c30.4-50.7,75.9-89.5,137.7-112.1c5.6-2,8.5-8.3,6.5-13.9C212,402.4,205.8,399.5,200.1,401.6
		L200.1,401.6z M67.1,744.2c-6,0-10.9-4.9-10.9-10.9s4.9-10.9,10.9-10.9h42.2c6,0,10.9,4.9,10.9,10.9s-4.9,10.9-10.9,10.9H67.1z"/>
	<path fill="#6D9ABB" d="M263.2,493.4l35.1-35.1c4.2-4.2,11.2-4.2,15.4,0l35.1,35.1c4.2,4.2,4.2,11.2,0,15.4l-35.1,35.1
		c-4.2,4.2-11.2,4.2-15.4,0l-35.1-35.1C258.9,504.5,258.9,497.6,263.2,493.4L263.2,493.4z M306,481.3l-19.7,19.7l19.7,19.7
		l19.7-19.7L306,481.3z"/>
	<path fill="#6D9ABB" d="M355.5,681.7c2.1,5.6-0.8,11.9-6.5,13.9c-5.6,2.1-11.9-0.8-13.9-6.5L306,609.9l-29.1,79.3
		c-2.1,5.6-8.3,8.5-13.9,6.5c-5.6-2.1-8.5-8.3-6.5-13.9l39.3-107.1h0c1.1-2.9,3.3-5.3,6.5-6.5c5.6-2.1,11.9,0.8,13.9,6.5
		L355.5,681.7z"/>
	<path fill="#6D9ABB" d="M476.2,655.4c-2.3-5.5,0.3-11.9,5.8-14.2c5.5-2.3,11.9,0.3,14.2,5.8c5.7,13.4,10.1,27.6,13,42.2
		c2.9,14.4,4.4,29.1,4.4,44.1c0,6-4.9,10.9-10.9,10.9s-10.9-4.9-10.9-10.9c0-13.8-1.4-27.1-3.9-39.8
		C485.3,680.3,481.3,667.5,476.2,655.4z"/>
	<path fill="#6D9ABB" d="M120.2,733.3c0,6-4.9,10.9-10.9,10.9c-6,0-10.9-4.9-10.9-10.9c0-14.9,1.5-29.7,4.4-44.1
		c2.9-14.6,7.4-28.8,13-42.2c2.3-5.5,8.7-8.1,14.2-5.8c5.5,2.3,8.1,8.7,5.8,14.2c-5.1,12.1-9.1,24.9-11.7,38
		C121.5,706.2,120.2,719.5,120.2,733.3z"/>
	<path fill="#6D9ABB" d="M126.5,226.9c0.2-6,5.3-10.6,11.3-10.4c6,0.2,10.6,5.3,10.4,11.3c0,0.2-3.1,84.3-42,118.5
		c9.1,3.1,19.3,5.4,29.3,5.9c15.1,0.7,29.5-3,36.7-15.8l0.3-0.5c2.9-5.3,9.4-7.2,14.7-4.4c5.3,2.9,7.2,9.5,4.4,14.7l-0.3,0.5l0,0.1
		c-12,21.7-34,28.2-56.7,27c-20.7-1-42.3-8.6-56.1-16l0,0l-0.1,0l-1.2-0.6c-2.4-1.3-4.3-3.5-5.2-6.3c-1.7-5.7,1.5-11.8,7.2-13.6
		C122.9,323.9,126.5,227.2,126.5,226.9z"/>
	<path fill="#6D9ABB" d="M463.8,227.8c-0.2-6,4.4-11.1,10.4-11.3c6-0.2,11.1,4.4,11.3,10.4c0,0.2,3.7,97,47.4,110.5
		c5.7,1.7,8.9,7.8,7.2,13.6c-0.9,2.8-2.8,5-5.2,6.3l-1.2,0.6l0,0l0,0c-13.8,7.4-35.3,15-56.1,16c-22.7,1.1-44.7-5.3-56.7-27l0-0.1
		l-0.3-0.5c-2.9-5.3-0.9-11.9,4.4-14.7c5.3-2.9,11.9-0.9,14.7,4.4l0.3,0.5c7.2,12.8,21.6,16.5,36.7,15.8c10-0.5,20.2-2.8,29.3-5.9
		C466.9,312.2,463.8,228.1,463.8,227.8z"/>
	<path fill="#6D9ABB" d="M306,47.8c49.6,0,94.5,20.1,126.9,52.6c32.5,32.5,52.6,77.4,52.6,127c0,49.5-20.1,94.4-52.6,126.9l0,0l0,0
		h0c-32.5,32.5-77.4,52.6-126.9,52.6c-49.6,0-94.5-20.1-126.9-52.6l-0.6-0.7c-32.1-32.4-52-77.1-52-126.3
		c0-49.5,20.1-94.4,52.6-126.9l0,0C211.5,67.9,256.4,47.8,306,47.8L306,47.8z M417.5,115.8C389,87.3,349.6,69.6,306,69.6
		c-43.5,0-83,17.7-111.5,46.2l0,0l0,0c-28.5,28.5-46.1,68-46.1,111.5c0,43.3,17.5,82.6,45.7,111l0.5,0.5
		c28.5,28.5,68,46.2,111.5,46.2c43.6,0,83.1-17.7,111.5-46.1l0,0c28.5-28.5,46.1-68,46.1-111.5C463.7,183.8,446.1,144.4,417.5,115.8
		z"/>
	<path fill="#6D9ABB" d="M306,47.8c40.8,0,78.4,13.6,108.6,36.6l0.7,0.6c30.5,23.4,53.2,56.4,63.7,94.5c1.6,5.8-1.8,11.7-7.5,13.3
		c-1,0.3-1.9,0.4-2.9,0.4v0h-138c-26.3,0-50.2-10.8-67.6-28.1l0-0.1c-17.3-17.3-28.1-41.3-28.1-67.5V69.8c0-4.9,3.3-9,7.7-10.4
		c9.8-3.7,20.1-6.6,30.8-8.6C284.1,48.9,295,47.8,306,47.8L306,47.8z M401.4,101.7C375,81.6,341.9,69.6,306,69.6
		c-10,0-19.6,0.9-28.7,2.6c-7,1.3-13.9,3.1-20.7,5.3v20.1c0,20.3,8.3,38.8,21.7,52.2l0.1,0.1c13.4,13.4,31.9,21.7,52.2,21.7h123.1
		c-10.5-27.7-28.6-51.7-51.7-69.4L401.4,101.7z"/>
	<path fill="#6D9ABB" d="M133.3,178.5c7.6-27.1,21.5-51.6,39.9-71.8c18.7-20.6,42.2-36.9,68.7-47c5.6-2.1,11.9,0.7,14,6.3
		c0.5,1.3,0.7,2.6,0.7,3.9h0v27.7c0,26.3-10.8,50.3-28.1,67.6l-0.7,0.6c-17.3,17-41,27.5-66.9,27.5h-17.4c-6,0-10.9-4.9-10.9-10.9
		C132.6,181,132.8,179.7,133.3,178.5L133.3,178.5z M189.2,121.3c-13.2,14.5-23.7,31.5-30.8,50.2h2.5c20,0,38.3-8.1,51.6-21.1
		l0.6-0.6c13.4-13.4,21.7-31.9,21.7-52.2v-11C217.6,95.3,202.1,107.1,189.2,121.3z"/>
	<path fill="#6D9ABB" d="M349.5,330.4c5.5-2.3,11.9,0.3,14.2,5.8s-0.3,11.9-5.8,14.2c-8.1,3.4-16.6,6.1-25.4,7.8
		c-8.7,1.7-17.6,2.7-26.5,2.7c-8.9,0-17.8-0.9-26.5-2.7c-8.8-1.8-17.3-4.4-25.4-7.8c-5.5-2.3-8.1-8.7-5.8-14.2
		c2.3-5.5,8.7-8.1,14.2-5.8c6.8,2.9,13.9,5.1,21.3,6.6c7,1.4,14.5,2.2,22.3,2.2s15.3-0.7,22.3-2.2
		C335.6,335.5,342.8,333.2,349.5,330.4z"/>
	<path fill="#6D9ABB" d="M198.6,421.3c-5.2-2.9-7.1-9.5-4.2-14.7c2.9-5.2,9.5-7.1,14.7-4.2c14.6,8.1,30.3,14.4,46.7,18.7l0,0v0
		c15.9,4.1,32.7,6.3,50.1,6.3s34.2-2.2,50.1-6.3l0.5-0.1c16.3-4.2,31.9-10.5,46.3-18.6c5.2-2.9,11.8-1,14.7,4.2
		c2.9,5.2,1,11.8-4.2,14.7c-16,8.9-33.3,15.9-51.5,20.6l-0.4,0.1c-17.8,4.6-36.4,7.1-55.5,7.1s-37.7-2.4-55.6-7.1v0
		C232.1,437.2,214.7,430.2,198.6,421.3z"/>
</g>
</svg>
