<?xml version="1.0" encoding="utf-8"?>
<!-- Generator: Adobe Illustrator 18.1.1, SVG Export Plug-In . SVG Version: 6.00 Build 0)  -->
<svg version="1.1" id="Capa_1" xmlns="http://www.w3.org/2000/svg" xmlns:xlink="http://www.w3.org/1999/xlink" x="0px" y="0px"
	 viewBox="0 0 612 792" enable-background="new 0 0 612 792" xml:space="preserve">
<g>
	<g>
		<path fill="#6D9ABB" d="M550.8,151.2H61.2C27.5,151.2,0,178.7,0,212.4v367.2c0,33.7,27.5,61.2,61.2,61.2h489.6
			c33.7,0,61.2-27.5,61.2-61.2V212.4C612,178.7,584.5,151.2,550.8,151.2z M550.8,579.6H61.2V212.4h489.6V579.6z M275.4,460.3h-153
			v55.1h153V460.3z M275.4,368.5h-153v55.1h153V368.5z M275.4,276.7h-153v55.1h153V276.7z M486.5,472.5c0,0-52-13.6-52-40.3
			c0-25.5,33.7-36.2,33.7-88.2c0-42.2-12.8-67.3-55.1-67.3c-42.3,0-55.1,25.1-55.1,67.3c0,52,33.6,62.7,33.6,88.2
			c0,26.7-52,40.3-52,40.3c-3.1,0-3.1,42.8-3.1,42.8h153C489.6,515.3,489.6,472.5,486.5,472.5z"/>
	</g>
</g>
</svg>
