<?xml version="1.0" encoding="utf-8"?>
<!-- Generator: Adobe Illustrator 18.1.1, SVG Export Plug-In . SVG Version: 6.00 Build 0)  -->
<svg version="1.1" id="Capa_1" xmlns="http://www.w3.org/2000/svg" xmlns:xlink="http://www.w3.org/1999/xlink" x="0px" y="0px"
	 viewBox="0 0 612 792" enable-background="new 0 0 612 792" xml:space="preserve">
<g>
	<g>
		<path fill="#6D9ABB" d="M535.4,455c-5.3,0-9.6-4.3-9.6-9.6s4.3-9.6,9.6-9.6h42.3c4.1,0,7.9-1.7,10.7-4.5c2.7-2.7,4.5-6.5,4.5-10.7
			v-49.4c0-4.2-1.7-8-4.4-10.7l0,0l0,0c-2.7-2.7-6.5-4.5-10.7-4.5h-42.3c-4.8,0-8.7-3.5-9.4-8.1c-2.9-13.2-6.9-26-12-38.2l-0.2-0.5
			c-5.2-12.4-11.5-24.3-18.7-35.5c-2.5-3.8-1.9-8.8,1.3-11.9l0,0l29.9-29.9c2.9-2.9,4.4-6.8,4.4-10.7c0-3.9-1.5-7.8-4.4-10.7
			l-34.9-34.9c-2.9-2.9-6.8-4.4-10.7-4.4c-3.9,0-7.8,1.5-10.7,4.4l0,0l0,0l-29.9,29.9c-3.4,3.4-8.8,3.7-12.6,0.9
			c-11.2-7.2-23-13.4-35.3-18.5l0,0v0c-12.4-5.1-25.3-9.2-38.7-12.1c-4.5-1-7.6-4.9-7.6-9.3h0v-42.3c0-4.2-1.7-8-4.4-10.7l0,0
			c-2.7-2.7-6.5-4.4-10.7-4.4h-49.4c-4.2,0-8,1.7-10.7,4.4l0,0c-2.7,2.7-4.4,6.5-4.4,10.7v42.3c0,4.8-3.5,8.7-8.1,9.4
			c-13.2,2.9-26,6.9-38.2,11.9v0c-12.6,5.2-24.7,11.6-36,18.9c-3.8,2.5-8.8,1.9-11.9-1.3l0,0L142,175.7l0,0
			c-2.9-2.9-6.8-4.4-10.7-4.4c-3.9,0-7.8,1.5-10.7,4.4l0,0l-34.9,34.9c-2.9,2.9-4.4,6.8-4.4,10.7s1.5,7.8,4.4,10.7l0.5,0.5
			l29.4,29.4c3.2,3.2,3.6,8.2,1.2,11.9c-7.3,11.3-13.7,23.3-18.9,36c-5.1,12.4-9.2,25.3-12.1,38.7c-1,4.5-4.9,7.6-9.3,7.6v0H34.3
			c-4.2,0-7.9,1.7-10.7,4.4l0,0c-2.7,2.7-4.4,6.5-4.4,10.7v49.4c0,4.1,1.7,7.9,4.5,10.7l0.4,0.4c2.7,2.5,6.3,4,10.3,4h42.3
			c4.8,0,8.7,3.5,9.4,8.1c2.9,13.2,6.9,26,12,38.2l0.2,0.5c5.2,12.4,11.5,24.3,18.7,35.5c2.5,3.8,1.9,8.8-1.3,12l0,0L85.7,560
			c-2.9,2.9-4.4,6.8-4.4,10.7c0,3.9,1.5,7.8,4.4,10.7l34.9,34.9c2.9,2.9,6.8,4.4,10.7,4.4c3.9,0,7.8-1.5,10.7-4.3l29.9-29.9
			c3.3-3.3,8.4-3.7,12.1-1.2c11.3,7.3,23.3,13.6,35.8,18.8l0.4,0.2c12.2,5,25,9,38.3,11.9c4.5,1,7.6,4.9,7.6,9.3h0v42.3
			c0,4.2,1.7,7.9,4.4,10.7l0,0c2.7,2.7,6.5,4.4,10.7,4.4h49.4c4.1,0,7.9-1.7,10.7-4.5l0.4-0.4c2.5-2.7,4-6.3,4-10.3v-42.3
			c0-4.8,3.5-8.7,8.1-9.5c13.2-2.9,26-6.9,38.1-11.9c12.6-5.2,24.7-11.6,36-18.9c3.8-2.5,8.8-1.9,12,1.3l0.2,0.2l29.7,29.7l0,0
			c2.9,2.9,6.8,4.4,10.7,4.4c3.9,0,7.8-1.5,10.7-4.4l0,0l34.9-34.9l0.4-0.4c2.6-2.9,4-6.6,4-10.3c0-3.9-1.5-7.8-4.4-10.7l-7.5-7.5
			l-7.5-7.5l-7.5-7.5l-0.5-0.5l-6.9-7c-3.3-3.3-3.7-8.5-1.1-12.2l2.5-3.9h0l2.7-4.5l0.2-0.3l2.2-3.8l2.5-4.6l0.1-0.2l2.1-4.1l0,0
			l2.3-4.7c2.3-4.7,8-6.7,12.7-4.4c4.7,2.3,6.7,8,4.4,12.7l-2.3,4.7h0l-0.1,0.2l-2.2,4.3l-0.3,0.6l-2.5,4.6l-0.1,0.2l-2.5,4.3
			l-0.3,0.5l-1.6,2.6l1.6,1.6l0.6,0.5l7.5,7.5l7.5,7.5l7.5,7.5c6.7,6.7,10,15.5,10,24.2c0,8.4-3.1,16.9-9.3,23.5l-0.7,0.7
			l-34.9,34.9l0,0l0,0c-6.7,6.7-15.5,10-24.2,10c-8.8,0-17.6-3.3-24.2-10l0,0l0,0l-24.5-24.5c-10.4,6.3-21.2,11.8-32.5,16.4
			c-11.1,4.6-22.6,8.4-34.5,11.4v34.7c0,9-3.6,17.4-9.4,23.5l-0.6,0.7c-6.2,6.2-14.8,10.1-24.2,10.1h-49.4c-9.4,0-18-3.9-24.2-10
			l0,0c-6.2-6.2-10.1-14.8-10.1-24.2V633c-11.6-2.9-22.9-6.6-33.9-11.1l-0.6-0.2c-11.3-4.7-22.1-10.2-32.5-16.4l-24.5,24.5l0,0
			c-6.7,6.7-15.5,10-24.2,10c-8.8,0-17.6-3.3-24.2-10l-34.9-34.9c-6.7-6.7-10-15.5-10-24.2s3.3-17.6,10-24.2l24.6-24.6
			c-6.1-10.2-11.6-20.9-16.2-32l-0.2-0.5c-4.6-11.1-8.4-22.7-11.4-34.5H34.3c-9,0-17.4-3.6-23.5-9.4l-0.7-0.6
			C3.9,438.7,0,430.1,0,420.7v-49.4c0-9.4,3.9-17.9,10.1-24.2l0,0c6.2-6.2,14.8-10.1,24.2-10.1h34.7c2.9-11.9,6.8-23.4,11.4-34.5
			c4.7-11.2,10.2-22.1,16.4-32.5l-24-24l-0.5-0.5c-6.7-6.7-10-15.5-10-24.2s3.3-17.6,10-24.2l34.9-34.9l0,0c6.7-6.7,15.4-10,24.2-10
			s17.6,3.3,24.2,10l0,0l24.5,24.5c10.3-6.2,21.2-11.7,32.4-16.4v0l0,0c11.1-4.6,22.7-8.4,34.4-11.4v-34.7c0-9.4,3.8-17.9,10.1-24.2
			l0,0c6.2-6.2,14.8-10.1,24.2-10.1h49.4c9.4,0,17.9,3.8,24.2,10.1l0,0c6.2,6.2,10.1,14.8,10.1,24.2v34.7
			c11.9,2.9,23.4,6.8,34.5,11.4v0c11.3,4.7,22.1,10.2,32.4,16.4l24.6-24.5l0,0c6.7-6.7,15.5-10,24.2-10c8.8,0,17.6,3.3,24.2,10
			l34.9,34.9c6.7,6.7,10,15.5,10,24.2c0,8.8-3.3,17.6-10,24.2l-24.6,24.6c6.1,10.2,11.6,20.8,16.2,32l0.2,0.5
			c4.6,11.1,8.4,22.7,11.4,34.5h34.7c9.4,0,18,3.9,24.2,10.1l0,0c6.2,6.2,10.1,14.8,10.1,24.2v49.4c0,9.4-3.9,18-10.1,24.2
			c-6.2,6.2-14.8,10.1-24.2,10.1L535.4,455L535.4,455z M220.2,604.2l4.8,12.3C227,611.8,224.9,606.4,220.2,604.2L220.2,604.2z
			 M495.3,517.9l1.1-1.3C496,517,495.6,517.4,495.3,517.9L495.3,517.9z M505.5,500.5l3.4-3.5C507.5,497.8,506.3,499,505.5,500.5z"/>
	</g>
	<path fill="#6D9ABB" d="M306,275.3c33.3,0,63.5,13.5,85.4,35.4c21.8,21.8,35.4,52,35.4,85.4c0,33.3-13.5,63.5-35.4,85.4
		c-21.8,21.8-52,35.4-85.4,35.4c-33.3,0-63.5-13.5-85.4-35.4c-21.8-21.8-35.3-52-35.3-85.4c0-33.3,13.5-63.5,35.3-85.4
		C242.5,288.8,272.7,275.3,306,275.3L306,275.3z M377.8,324.2c-18.4-18.4-43.8-29.8-71.8-29.8c-28,0-53.5,11.4-71.8,29.7
		s-29.7,43.8-29.7,71.9c0,28,11.4,53.4,29.7,71.8c18.4,18.4,43.8,29.8,71.8,29.8c28,0,53.5-11.4,71.8-29.8
		c18.4-18.4,29.8-43.8,29.8-71.8C407.6,367.9,396.2,342.5,377.8,324.2z"/>
	<path fill="#6D9ABB" d="M306,324.7c19.7,0,37.6,8,50.4,20.9c12.9,12.9,20.9,30.7,20.9,50.4c0,19.6-8,37.5-20.9,50.4l0,0l0,0l0,0
		c-12.9,12.9-30.7,20.9-50.4,20.9c-19.7,0-37.5-8-50.4-20.9c-12.9-12.9-20.9-30.7-20.9-50.4c0-19.7,8-37.5,20.9-50.4l0,0
		C268.5,332.7,286.3,324.7,306,324.7L306,324.7z M342.9,359.1c-9.4-9.4-22.5-15.3-36.9-15.3s-27.5,5.8-36.9,15.2l0,0
		c-9.4,9.4-15.2,22.5-15.2,36.9c0,14.4,5.9,27.5,15.3,36.9c9.4,9.4,22.5,15.3,36.9,15.3c14.4,0,27.5-5.8,36.9-15.2l0,0
		c9.4-9.4,15.2-22.5,15.2-36.9C358.2,381.6,352.3,368.5,342.9,359.1z"/>
</g>
</svg>
