<?xml version="1.0" encoding="utf-8"?>
<!-- Generator: Adobe Illustrator 18.1.1, SVG Export Plug-In . SVG Version: 6.00 Build 0)  -->
<svg version="1.1" id="Capa_1" xmlns="http://www.w3.org/2000/svg" xmlns:xlink="http://www.w3.org/1999/xlink" x="0px" y="0px"
	 viewBox="159.5 84.8 472.9 442.3" enable-background="new 159.5 84.8 472.9 442.3" xml:space="preserve">
<g>
	<g id="Layer_1_107_">
		<g>
			<path fill="#E2DCD0" d="M626.4,142.5c-4.7-5.4-11.4-8.5-18.5-8.5H268.4l-4.8-28.6c-1.9-11.8-12.2-20.6-24.2-20.6h-55.3
				c-13.6,0.1-24.6,11.1-24.6,24.7s11,24.6,24.6,24.6h34.5l45.7,274.2c0.2,1.1,0.8,2,1.1,3c0.4,1.3,0.7,2.5,1.3,3.7
				c0.8,1.6,1.9,3,2.9,4.4c0.8,0.9,1.5,1.9,2.3,2.8c1.4,1.3,3.1,2.2,4.7,3.2c0.9,0.5,1.8,1.2,2.8,1.6c2.9,1.2,5.9,1.9,9,1.9h270.2
				c13.6,0,24.6-11,24.6-24.6s-11-24.6-24.6-24.6H309.3l-4.1-24.6h278.1c12.2,0,22.6-9,24.3-21.1l24.6-171.9
				C633.2,155,631.1,147.9,626.4,142.5z M579.6,183.1l-7,49.1H485v-49.1H579.6z M460.5,183.1v49.1h-73.7v-49.1H460.5z M460.5,256.9
				V306h-73.7v-49.1H460.5z M362.2,183.1v49.1h-73.7c-1.3,0-2.5,0.4-3.6,0.8l-8.3-49.9H362.2z M288.9,256.9h73.3V306h-65.1
				L288.9,256.9z M485,306v-49.1h84l-7,49.1H485z"/>
			<circle fill="#E2DCD0" cx="325.4" cy="490.2" r="36.9"/>
			<circle fill="#E2DCD0" cx="546.5" cy="490.2" r="36.9"/>
		</g>
	</g>
</g>
</svg>
