<?xml version="1.0" encoding="utf-8"?>
<!-- Generator: Adobe Illustrator 18.1.1, SVG Export Plug-In . SVG Version: 6.00 Build 0)  -->
<svg version="1.1" id="Capa_1" xmlns="http://www.w3.org/2000/svg" xmlns:xlink="http://www.w3.org/1999/xlink" x="0px" y="0px"
	 viewBox="-49 141 512 512" enable-background="new -49 141 512 512" xml:space="preserve">
<g>
	<path fill="#6D9ABB" d="M207,173c123.5,0,224,100.5,224,224S330.5,621,207,621S-17,520.5-17,397S83.5,173,207,173 M207,141
		C65.6,141-49,255.6-49,397S65.6,653,207,653s256-114.6,256-256S348.4,141,207,141L207,141z M349.7,482.6l-1.4-4.4
		c-3.4-10.1-14.5-20.6-24.8-23.4l-37.8-10.3c-10.2-2.8-24.9,1-32.4,8.5l-13.7,13.7c-49.8-13.5-88.8-52.5-102.2-102.2l13.7-13.7
		c7.5-7.5,11.2-22.1,8.5-32.4l-10.3-37.8c-2.8-10.2-13.3-21.4-23.4-24.8l-4.3-1.4c-10.1-3.4-24.5,0-32,7.6L69,282.4
		c-3.7,3.6-6,14-6,14.1c-0.7,65.1,24.8,127.7,70.8,173.8c45.9,45.9,108.3,71.3,173.2,70.8c0.3,0,11.1-2.3,14.7-5.9l20.5-20.5
		C349.7,507.1,353.1,492.7,349.7,482.6z"/>
</g>
</svg>
